<mxfile host="app.diagrams.net" modified="2022-07-14T05:55:11.662Z" agent="5.0 (Windows NT 10.0; Win64; x64) AppleWebKit/537.36 (KHTML, like Gecko) Chrome/72.0.3626.109 Safari/537.36" etag="hutgM3CdUBQIa1wJz8VM" version="20.0.4" type="github">
  <diagram id="p9n_bc3SbhjJMSLZ9fTK" name="Page-1">
    <mxGraphModel dx="2000" dy="802" grid="1" gridSize="10" guides="1" tooltips="1" connect="1" arrows="1" fold="1" page="1" pageScale="1" pageWidth="827" pageHeight="1169" math="0" shadow="0">
      <root>
        <mxCell id="0" />
        <mxCell id="1" parent="0" />
        <mxCell id="jFK4HW7zc7nIR7IQ1i9l-1" value="xxx" style="rounded=1;whiteSpace=wrap;html=1;" vertex="1" parent="1">
          <mxGeometry x="210" y="210" width="120" height="60" as="geometry" />
        </mxCell>
      </root>
    </mxGraphModel>
  </diagram>
</mxfile>
